<svg width="50" height="50" viewBox="0 0 50 50" fill="none" xmlns="http://www.w3.org/2000/svg">
<path d="M25.75 12.5C25.75 12.0858 25.4142 11.75 25 11.75C24.5858 11.75 24.25 12.0858 24.25 12.5H25.75ZM24.25 37.5C24.25 37.9142 24.5858 38.25 25 38.25C25.4142 38.25 25.75 37.9142 25.75 37.5H24.25ZM37.5 25.75C37.9142 25.75 38.25 25.4142 38.25 25C38.25 24.5858 37.9142 24.25 37.5 24.25L37.5 25.75ZM12.5 24.25C12.0858 24.25 11.75 24.5858 11.75 25C11.75 25.4142 12.0858 25.75 12.5 25.75L12.5 24.25ZM24.25 12.5V37.5H25.75V12.5H24.25ZM37.5 24.25L12.5 24.25L12.5 25.75L37.5 25.75L37.5 24.25Z" fill="white"/>
</svg>
