<svg width="31" height="30" viewBox="0 0 31 30" fill="none" xmlns="http://www.w3.org/2000/svg">
<path fill-rule="evenodd" clip-rule="evenodd" d="M6.76852 14.5349C6.76852 19.0302 10.4127 22.6744 14.9081 22.6744C19.4034 22.6744 23.0476 19.0302 23.0476 14.5349C23.0476 10.0395 19.4034 6.39535 14.9081 6.39535C10.4127 6.39535 6.76852 10.0395 6.76852 14.5349ZM14.9081 24.0698C9.64208 24.0698 5.37317 19.8009 5.37317 14.5349C5.37317 9.26891 9.64208 5 14.9081 5C20.174 5 24.4429 9.26891 24.4429 14.5349C24.4429 16.9168 23.5696 19.0946 22.1256 20.7658L25.1688 23.809C25.4413 24.0815 25.4413 24.5232 25.1688 24.7957C24.8964 25.0681 24.4546 25.0681 24.1822 24.7957L21.1389 21.7524C19.4678 23.1964 17.2899 24.0698 14.9081 24.0698Z" fill="#28303F" fill-opacity="0.49"/>
</svg>
